<?xml version="1.0" encoding="utf-8"?>
<!-- Generator: Adobe Illustrator 24.2.3, SVG Export Plug-In . SVG Version: 6.00 Build 0)  -->
<svg version="1.1" xmlns="http://www.w3.org/2000/svg" xmlns:xlink="http://www.w3.org/1999/xlink" x="0px" y="0px"
	 viewBox="0 0 105 105" style="enable-background:new 0 0 105 105;" xml:space="preserve">
<g id="Layer_1">
</g>
<g id="Layer_2">
	<g>
		<g>
			<g>
				<g>
					<path d="M47.77,67.44c1.16,0.26,1.96,1.36,2.06,2.52c0-0.02,0-0.04,0-0.05c0.07,1.1,0.06-3.54,0-2.52c0-0.02,0-0.04,0-0.05
						c-0.02,0.3-0.09,0.58-0.22,0.86c-0.04,0.08-0.01,0.39-0.01,0.44c0,0.35,0,0.71,0,1.06c0,0.35,0,0.71,0,1.06
						c0,0.08,0,0.16,0,0.23c0,0.07,0,0.14,0.01,0.2c0.31-0.67,0.24-1.43,0.24-2.14c0-0.63,0.01-1.26-0.01-1.89
						c0-0.11-0.01-0.22-0.03-0.33c-0.03-0.23-0.09-0.45-0.17-0.66c-0.31-0.83-1-1.52-1.88-1.72c0,0-0.01,0.51-0.01,0.44
						c0,0.35,0,0.71,0,1.06c0,0.35,0,0.71,0,1.06C47.76,67.05,47.74,67.43,47.77,67.44L47.77,67.44z"/>
				</g>
			</g>
			<g>
				<g>
					<path d="M14.31,91.45c0.08,0.39,0.16,0.78,0.25,1.17c0-0.04,0.01-0.09,0.01-0.13c0-0.1,0-0.21,0-0.31c0-0.35,0-0.71,0-1.06
						c0-0.35,0-0.71,0-1.06c0-0.08,0-0.16,0-0.23c0-0.07,0-0.14-0.01-0.2c-0.08-0.39-0.16-0.78-0.25-1.17
						c0,0.04-0.01,0.09-0.01,0.13c0,0.1,0,0.21,0,0.31c0,0.35,0,0.71,0,1.06c0,0.35,0,0.71,0,1.06c0,0.08,0,0.16,0,0.23
						C14.3,91.31,14.3,91.38,14.31,91.45L14.31,91.45z"/>
				</g>
			</g>
			<g>
				<g>
					<path d="M11.83,56.85c0.07,0.63,0.15,1.26,0.22,1.88c0-0.04,0.01-0.09,0.01-0.13c0-0.1,0-0.21,0-0.31c0-0.35,0-0.71,0-1.06
						c0-0.35,0-0.71,0-1.06c0-0.15,0.01-0.3-0.01-0.44c-0.07-0.63-0.15-1.26-0.22-1.88c0,0.04-0.01,0.09-0.01,0.13
						c0,0.1,0,0.21,0,0.31c0,0.35,0,0.71,0,1.06c0,0.35,0,0.71,0,1.06C11.82,56.55,11.81,56.7,11.83,56.85L11.83,56.85z"/>
				</g>
			</g>
			<g>
				<g>
					<path d="M11.29,99.44c21.54,0,43.07,0,64.61,0c6.07,0,12.14,0,18.21,0c0.02,0,0.02-3,0-3c-21.54,0-43.07,0-64.61,0
						c-6.07,0-12.14,0-18.21,0C11.27,96.44,11.27,99.44,11.29,99.44L11.29,99.44z"/>
				</g>
			</g>
		</g>
		<g>
			<g>
				<path d="M66.92,40.23c-0.38-3.39-0.52-5.76,0.26-9.13c0.56-2.45,1.57-4.79,3.09-6.8c1.41-1.85,3.24-3.42,5.39-4.34
					c1.08-0.46,2.54-0.98,3.72-0.71c1.17,0.27,1.81,1.42,1.82,2.56c0-0.93,0.01-1.86,0.01-2.8c-0.16,1.87-1.43,3.42-2.46,4.91
					c-1.15,1.64-2.35,3.25-3.59,4.82c-2.53,3.21-5.22,6.28-7.99,9.28C61.66,44,55.87,49.7,50.4,55.71c-3.09,3.4-6.07,6.9-8.82,10.57
					c-0.17,0.23-0.01,1.21-0.01,1.5c0,0.29,0.19,1.27,0.01,1.5c8.64-11.52,19.43-21.13,28.9-31.93c2.36-2.69,4.64-5.45,6.77-8.33
					c1.01-1.36,2.02-2.73,2.91-4.17c0.8-1.29,1.07-2.45,1.07-3.93c0-1.1,0.18-2.44-0.35-3.46c-0.85-1.64-2.73-1.33-4.22-0.86
					c-2.87,0.91-5.26,2.98-6.92,5.45c-2.1,3.12-2.97,6.84-3.17,10.56c-0.18,3.54-0.05,7.11,0.35,10.63
					C66.81,42.24,67.03,41.22,66.92,40.23L66.92,40.23z"/>
			</g>
		</g>
		<g>
			<g>
				<path d="M34.79,62.21c0.31-7.42,4.74-13.72,9.46-19.12c2.35-2.69,4.78-5.37,7.55-7.63c0.95-0.78,7.83-5.76,8.34-3.46
					c0-0.98,0-1.96,0-2.95c-0.04,0.97-0.72,1.7-1.26,2.45c-0.64,0.88-1.28,1.75-1.93,2.63c-1.26,1.69-2.52,3.37-3.78,5.06
					c-2.56,3.42-5.08,6.88-7.4,10.47c-2.26,3.51-4.31,7.15-5.95,10.99c-1.38,3.22-2.37,6.64-1.75,10.18
					c0.33,1.84,1.71,3.41,3.67,3.36c1.99-0.05,3.87-1.38,5.85-0.57c0-1,0-2,0-3c-2.56,2.97-5.5,5.6-8.78,7.76
					c-3.16,2.09-6.94,4.3-10.78,4.71c-4.22,0.45-7.14-2.51-9.29-5.78c-2.12-3.21-3.36-6.91-3.69-10.74c0,1,0,2,0,3
					c1.83,1.11,2.94,2.91,3.76,4.84c0.47,1.12,0.87,2.27,1.15,3.45c0.07,0.31,0.13,0.61,0.19,0.92c0.05,0.3,0.06,1.32,0.14,0.16
					c0.08-1.31-0.03,0.16-0.07,0.43c-0.05,0.31-0.11,0.61-0.19,0.91c-0.49,1.84-1.66,3.7-3.43,4.55c-1.54,0.74-3.69,0.61-4.56-1.03
					c0.15,0.29-0.01,1.16-0.02,1.5c0,0.38-0.17,1.16,0.02,1.5c1.13,2.12,4.01,1.64,5.59,0.35c1.95-1.59,2.67-4.06,2.71-6.49
					c0.04-2.54-0.02-4.96-0.83-7.4c-0.85-2.57-2.05-5.24-4.45-6.7c0.24,0.14-0.03,2.62,0,3c0.32,3.83,1.57,7.53,3.69,10.74
					c2.16,3.27,5.08,6.23,9.29,5.78c3.83-0.41,7.62-2.63,10.78-4.71c3.28-2.17,6.22-4.79,8.78-7.76c0.14-0.17,0.08-2.97,0-3
					c-2.74-1.12-5.88,2.02-8.31-0.38c-0.49-0.48-0.83-1.1-1.05-1.74c-0.03-0.11-0.06-0.22-0.1-0.33c-0.11-0.65-0.14-0.44-0.06,0.61
					c0.03-0.01,0.26-1.17,0.28-1.27c0.51-1.8,1.28-3.55,2.06-5.24c2.95-6.44,6.99-12.3,11.18-17.98c2.15-2.92,4.36-5.81,6.51-8.73
					c0.72-0.99,1.84-2.08,2.03-3.32c0.08-0.56,0.02-1.17,0.02-1.73c0-0.47,0.16-1.31-0.07-1.76c-0.59-1.13-3.14,0.42-3.88,0.8
					c-1.57,0.8-3.04,1.81-4.4,2.92c-2.56,2.09-4.81,4.54-7,7c-4.97,5.6-9.7,12.09-10.02,19.85C34.74,60.22,34.81,61.5,34.79,62.21
					L34.79,62.21z"/>
			</g>
		</g>
		<g>
			<g>
				<path d="M66.54,12.73c-0.23-0.28-0.34-0.56-0.38-0.92c0,0.15,0.01,0.29,0.01,0.44c0-0.06,0-0.11,0-0.17
					c0,0.85-0.01,1.71-0.01,2.56c0.03-0.39,0.18-0.99,0.57-1.19c0.22-0.11,0.34-0.05,0.48,0.18c0.06,0.1,0.05,0.22,0.1,0.31
					c0.05,0.09,0.1-3.03-0.03-1.96c-0.18,1.44-0.4,2.86-0.74,4.27c-0.67,2.78-1.64,5.49-2.6,8.18c-0.14,0.4-0.01,1.08-0.01,1.5
					c0,0.35,0,0.71,0,1.06c0,0.12,0.05,0.33,0.01,0.44c1.46-4.08,2.95-8.23,3.36-12.58c0.1-1.11,0.07-2.24,0.05-3.36
					c-0.01-0.54-0.24-1.59-0.85-0.79c-0.51,0.66-0.35,1.68-0.35,2.45c0,0.84-0.18,1.89,0.39,2.59c-0.02-0.03,0.01-0.47,0.01-0.44
					c0-0.35,0-0.71,0-1.06c0-0.35,0-0.71,0-1.06C66.55,13.08,66.59,12.79,66.54,12.73L66.54,12.73z"/>
			</g>
		</g>
		<g>
			<g>
				<path d="M35.26,29.61c-0.42,1.29-0.26,2.82-0.23,4.15c0.01,0.54,0.08,1.05,0.27,1.56c0.11,0.29,0.25,0.56,0.43,0.82
					c0.09,0.13,0.18,0.25,0.28,0.36c0.13,0.25,0.23,0.22,0.3-0.07c0.44-0.42,0.66-1.49,0.79-2.06c0.15-0.61,0.21-1.22,0.23-1.85
					c0.05-1.47,0.11-2.99-0.11-4.45c0.14,0.94-0.05,1.99,0,2.95c0.04,0.84,0.24,1.65,0.67,2.38c0.37,0.63,1.18,1.73,2,1.73
					c0.94,0,0.93-1.15,0.93-1.8c0.01-1,0.1-2.04-0.08-3.02c-0.81-4.38-2.29-8.74-3.82-12.91c0.14,0.37-0.02,1.1-0.02,1.5
					c0,0.43-0.14,1.09,0.02,1.5c0.81,2.21,1.56,4.45,2.22,6.71c0.32,1.08,0.61,2.17,0.89,3.26c0.29,1.13,0.66,2.29,0.78,3.45
					c0-0.63-0.01-1.27-0.01-1.9c0,0.09,0,0.17,0,0.26c0-0.37,0.01-0.73,0.01-1.1c-0.07,0.49-0.34,1.06-0.92,1.06
					c-0.52,0-1.01-0.51-1.34-0.85c-0.81-0.86-1.27-1.97-1.32-3.15c0,0.98,0,1.96,0,2.95c0.03,0.18,0.06,0.36,0.07,0.55
					c0.05-1.43,0.04-1.79-0.04-1.07c-0.07,0.36-0.12,0.73-0.22,1.08c-0.1,0.36-0.22,0.71-0.36,1.05c-0.08,0.2-0.24,0.75-0.43,0.87
					c-0.05,0.18-0.13,0.16-0.23-0.05c-0.1-0.11-0.2-0.24-0.28-0.36c-0.17-0.25-0.32-0.53-0.43-0.82c-0.11-0.29-0.15-0.59-0.23-0.89
					c-0.11,1.92-0.09,2.46,0.05,1.62c0.03-0.15,0.08-0.3,0.13-0.44c0.13-0.41,0.01-1.07,0.01-1.5
					C35.27,30.68,35.12,30.02,35.26,29.61L35.26,29.61z"/>
			</g>
		</g>
		<g>
			<g>
				<path d="M9.93,52.46c-0.4,0.78-0.65,1.63-0.72,2.5c-0.08,0.89-0.04,1.8-0.04,2.7c0,0.61,0,1.22,0.09,1.82
					c0.07,0.48,0.32,1.93,1.12,1.57c0.35-0.16,0.59-0.6,0.75-0.93c0.18-0.36,0.3-0.74,0.36-1.13c0.04-0.24,0.05-0.49,0.05-0.73
					c0.01-0.73,0.01-1.46,0.01-2.18c0-0.61,0-1.2-0.18-1.79c0.03,0.09-0.01,0.37-0.01,0.44c0,0.35,0,0.71,0,1.06
					c0,0.35,0,0.71,0,1.06c0,0.13-0.03,0.31,0.01,0.44c0.06,0.2,0.11,0.4,0.13,0.6c0.01,0.1,0.02,0.2,0.03,0.3
					c0.06-2.58,0.06-3.38-0.01-2.42c-0.01,0.06-0.01,0.12-0.02,0.18c-0.05,0.38-0.17,0.75-0.33,1.1c-0.25,0.54-0.92,1.55-1.5,0.75
					c-0.22-0.31-0.3-0.71-0.37-1.08c-0.04-0.19-0.06-0.38-0.08-0.57C9.21,56.07,9.2,56,9.2,55.92c-0.04-0.9-0.04-0.13-0.01,2.32
					c0.01-0.11,0.01-0.22,0.02-0.33c0.08-0.86,0.32-1.69,0.72-2.45c0.04-0.08,0.01-0.4,0.01-0.44c0-0.35,0-0.71,0-1.06
					c0-0.35,0-0.71,0-1.06C9.94,52.8,9.89,52.54,9.93,52.46L9.93,52.46z"/>
			</g>
		</g>
		<g>
			<g>
				<path d="M76.56,38.07c1.72-4.33,4.98-7.95,9.1-10.13c0.12-0.06,0.01-1.34,0.01-1.5c0-0.35,0-0.71,0-1.06
					c0-0.05-0.03-0.43-0.01-0.44c-4.12,2.17-7.38,5.8-9.1,10.13c-0.04,0.09-0.01,0.37-0.01,0.44c0,0.35,0,0.71,0,1.06
					c0,0.35,0,0.71,0,1.06C76.55,37.74,76.6,37.97,76.56,38.07L76.56,38.07z"/>
			</g>
		</g>
		<g>
			<g>
				<path d="M82.35,33.79c0.02,0,0.02-3,0-3C82.33,30.79,82.33,33.79,82.35,33.79L82.35,33.79z"/>
			</g>
		</g>
		<g>
			<g>
				<path d="M23.41,74.77c0.02,1.17,0.39,2.28,1.2,3.15c0.09,0.1,0.19,0.19,0.29,0.28c0.02,0.02,0.12,0.13,0.15,0.12
					c0.03-0.01,0.08-0.19,0.09-0.22c0.11-0.28,0.18-0.58,0.23-0.88c0.06-0.38,0.07-0.76,0.07-1.14c0.01-0.94,0.04-1.9-0.01-2.84
					c-0.04-0.68-0.21-1.34-0.53-1.95c0.03,0.05-0.01,0.43-0.01,0.44c0,0.35,0,0.71,0,1.06c0,0.35,0,0.71,0,1.06
					c0,0.11-0.04,0.34,0.01,0.44c0.29,0.56,0.46,1.17,0.52,1.8c0-0.02,0-0.04,0-0.05c0,0.04,0.01,0.09,0.01,0.13
					c0.02,0.49,0.02,0.09,0-1.21c0.02-1.3,0.02-1.7,0-1.21c0,0.04,0,0.09-0.01,0.13c0-0.02,0-0.04,0-0.05
					c-0.04,0.45-0.13,0.89-0.29,1.31c-0.02,0.04-0.03,0.13-0.06,0.16c0,0.04-0.02,0.04-0.04,0.01c-0.02-0.02-0.05-0.04-0.07-0.06
					c-0.08-0.07-0.16-0.14-0.23-0.21c-0.15-0.15-0.29-0.31-0.41-0.47c-0.51-0.67-0.81-1.49-0.88-2.33c0,0.02,0,0.04,0,0.05
					c0,0-0.01-0.18-0.01-0.1c0,0.07,0.01-0.33-0.01-0.15c-0.02,0.22-0.01,0.47-0.01,0.69C23.4,73.4,23.39,74.08,23.41,74.77
					L23.41,74.77z"/>
			</g>
		</g>
		<g>
			<g>
				<path d="M34.21,21.98c0.06,0.98,0.29,1.94,0.7,2.83c0-0.04,0.01-0.09,0.01-0.13c0-0.1,0-0.21,0-0.31c0-0.35,0-0.71,0-1.06
					c0-0.35,0-0.71,0-1.06c0-0.08,0-0.16,0-0.23c0-0.07,0-0.14-0.01-0.2c-0.39-0.83-0.62-1.71-0.69-2.62c0,0.02,0,0.04,0,0.05
					c0-0.05-0.01-0.1-0.01-0.15c-0.01-0.19-0.01,0.24-0.01,0.15c-0.01,0.3-0.01,0.6-0.01,0.9C34.2,20.75,34.18,21.37,34.21,21.98
					L34.21,21.98z"/>
			</g>
		</g>
		<g>
			<g>
				<path d="M11.38,91.17c0.39,0.84,1.4,1.31,2.29,1.08c0.02,0,0.01-0.5,0.01-0.44c0-0.35,0-0.71,0-1.06c0-0.35,0-0.71,0-1.06
					c0-0.04-0.02-0.44-0.01-0.44c-0.9,0.23-1.9-0.24-2.29-1.08c0,0.04-0.01,0.09-0.01,0.13c0,0.1,0,0.21,0,0.31
					c0,0.35,0,0.71,0,1.06c0,0.35,0,0.71,0,1.06c0,0.08,0,0.16,0,0.23C11.37,91.03,11.38,91.1,11.38,91.17L11.38,91.17z"/>
			</g>
		</g>
		<g>
			<g>
				<path d="M34.2,22.46c0.25,0.5,0.45,1.02,0.58,1.56c0.06,0.25,0.11,0.51,0.14,0.77c0.01,0.11,0.03,0.22,0.04,0.33
					c0.12,1.4,0.09-3.05,0.02-1.94c-0.08,1.1-0.35,2.16-0.89,3.13c-0.04,0.07-0.01,0.4-0.01,0.44c0,0.35,0,0.71,0,1.06
					c0,0.35,0,0.71,0,1.06c0,0.1,0.05,0.36,0.01,0.44c0.34-0.62,0.59-1.28,0.74-1.97c0.19-0.87,0.18-1.76,0.18-2.65
					c0-1.05,0.06-2.13-0.12-3.17c-0.12-0.72-0.35-1.4-0.68-2.05c0.03,0.06-0.01,0.43-0.01,0.44c0,0.35,0,0.71,0,1.06
					c0,0.35,0,0.71,0,1.06C34.19,22.13,34.15,22.36,34.2,22.46L34.2,22.46z"/>
			</g>
		</g>
	</g>
</g>
</svg>
